<?xml version="1.0" standalone="no"?>
<svg xmlns="http://www.w3.org/2000/svg" viewBox="0 0 144.072 24.82" width="144.072" height="24.82"><g fill="#00d3f3" color="#00d3f3" transform="translate(0, 0) scale(0.2612613)"><svg width="111.0" height="95.0" x="0.0" y="0.0" viewBox="0 0 111 95"><g><g><path fill="currentColor" d="M104.343,59.979h-0.009c4.685-6.157,7.313-13.35,7.16-20.989C111.063,17.007,87.805-0.362,59.553,0.194    C31.301,0.749,8.751,19.021,9.183,40.999c0.008,0.403,0.023,0.804,0.048,1.204l1.382-0.889c-0.006-0.122,7.458-3.969,7.458-4.091    c0-15.986,23.184-31.354,41.478-31.354c16.493,0,44.731,9.461,44.731,33.198c-0.001,7.173-4.12,14.362-8.574,20.141    c-3.728,5.777,0.721,18.79,0.721,18.79l-14.634-7.79c-3.827,1.192-9.75,1.75-11.375,2.209c-1.959,4.583-5.001,7.155-5.001,7.155    c5.152-0.36,9.128-1.237,13.731-2.69l25.925,11.143C105.072,88.024,96.293,70.293,104.343,59.979z M35.457,36.076    C16.445,35.702,0.795,47.391,0.504,62.185c-0.103,5.14,1.667,9.98,4.817,14.123H5.316c5.416,6.94-0.491,18.873-0.491,18.873    l17.446-7.498c3.76,1.187,7.846,1.876,12.127,1.961c19.012,0.374,34.662-11.314,34.954-26.108    C69.644,48.745,54.469,36.45,35.457,36.076z"></path></g></g></svg></g><line x1="41" y1="1" x2="41" y2="23.82" stroke="#000000" stroke-linecap="round"></line><path fill="#000000" fill-rule="nonzero" d="M0 7.32Q0 6.19 1.15 5.39Q2.30 4.58 3.97 4.58Q5.64 4.58 6.50 5.02Q7.37 5.45 7.37 6.12L7.37 6.12Q7.37 6.43 7.16 6.64Q6.96 6.84 6.67 6.84Q6.38 6.84 5.53 6.46Q4.68 6.07 4.00 6.07Q3.31 6.07 2.56 6.44Q1.80 6.82 1.80 7.37Q1.80 7.92 2.71 8.35Q3.62 8.78 4.87 9.10Q6.12 9.41 6.54 9.71Q6.96 10.01 7.14 10.19Q7.32 10.37 7.51 10.88Q7.70 11.40 7.70 12.22L7.70 12.22Q7.70 13.97 6.56 14.82Q5.42 15.67 3.85 15.67Q2.28 15.67 1.15 15.17Q0.02 14.66 0.02 13.92L0.02 13.92Q0.02 13.54 0.35 13.24Q0.67 12.94 1.03 13.08L1.03 13.08Q3.29 13.97 3.86 13.97L3.86 13.97Q4.90 13.97 5.45 13.45Q6 12.94 6 12.14Q6 11.35 5.38 10.93Q4.75 10.51 3.88 10.32Q3 10.13 2.12 9.89Q1.25 9.65 0.62 9.05Q0 8.45 0 7.32ZM18.55 4.06L18.55 4.06Q19.25 4.06 19.25 4.73L19.25 4.73Q19.32 9 19.32 14.69L19.32 14.69Q19.32 15.07 19.04 15.38Q18.77 15.70 18.17 15.70Q17.57 15.70 17.57 14.90L17.57 14.90Q17.57 12.36 17.53 11.12Q17.50 9.89 17.50 8.45L17.50 8.45Q16.61 9.53 15.78 9.96Q14.95 10.39 13.58 10.39Q12.22 10.39 11.45 9.65L11.45 9.65Q11.45 13.94 11.40 14.69L11.40 14.69Q11.35 15.70 10.27 15.70L10.27 15.70Q9.62 15.70 9.62 15L9.62 15L9.70 10.56Q9.70 8.40 9.70 7.18L9.70 7.18L9.70 5.83Q9.70 5.50 9.96 5.18Q10.22 4.87 10.57 4.87Q10.92 4.87 11.20 5.03Q11.47 5.18 11.50 5.50L11.50 5.50Q11.54 6.72 12.20 7.68Q12.86 8.64 13.70 8.64L13.70 8.64Q16.13 8.64 17.06 6.02L17.06 6.02Q17.11 5.90 17.27 5.40Q17.42 4.90 17.52 4.70Q17.62 4.51 17.89 4.28Q18.17 4.06 18.55 4.06ZM22.80 15.05L22.80 15.05Q22.70 15.65 21.95 15.65Q21.19 15.65 21.19 15.02L21.19 15.02Q21.19 13.61 22.58 9.26L22.58 9.26Q23.21 7.27 23.98 5.95Q24.74 4.63 25.46 4.63L25.46 4.63Q25.85 4.63 26.14 5.09Q26.42 5.54 27.18 7.16Q27.94 8.78 28.44 10.60Q28.94 12.41 29.54 15.02L29.54 15.02Q29.54 15.34 29.33 15.52Q29.11 15.70 28.80 15.70L28.80 15.70Q28.03 15.70 27.84 15.02L27.84 15.02L27 11.74Q24.89 11.74 23.62 11.40L23.62 11.40Q22.90 14.04 22.80 15.05ZM25.39 6.84L25.39 6.84Q24.60 8.18 24.10 9.84L24.10 9.84Q25.15 10.13 26.59 10.13L26.59 10.13Q26.14 8.47 25.39 6.84ZM33.48 14.78L33.48 14.81Q33.48 15.17 33.14 15.43Q32.81 15.70 32.40 15.70L32.40 15.70Q31.87 15.70 31.87 15.22L31.87 15.22Q31.78 14.09 31.78 6.26L31.78 6.26Q31.78 5.50 32.70 5.06Q33.62 4.63 35.17 4.63Q36.72 4.63 37.88 5.40Q39.05 6.17 39.05 7.25L39.05 7.25Q39.05 7.78 38.59 8.42Q38.14 9.07 37.62 9.44Q37.10 9.82 36.14 10.34Q35.18 10.87 34.97 10.92L34.97 10.92Q36.48 11.88 37.66 13.01Q38.83 14.14 38.83 14.78Q38.83 15.43 38.26 15.62L38.26 15.62Q38.09 15.67 37.82 15.67Q37.56 15.67 37.15 15.16Q36.74 14.64 35.62 13.67Q34.49 12.70 33.38 11.93L33.38 11.93Q33.43 13.85 33.48 14.78L33.48 14.78ZM33.38 9.79L33.38 9.79Q34.18 9.79 35.76 9.01Q37.34 8.23 37.42 7.56L37.42 7.56Q37.42 6.91 36.70 6.59Q35.98 6.26 35.18 6.26L35.18 6.26Q34.27 6.26 33.41 6.48L33.41 6.48Q33.38 7.63 33.38 9.79ZM47.66 6.12L46.08 6.07L46.03 11.76Q46.03 13.54 46.08 14.88L46.08 14.88Q46.10 15.24 45.78 15.47Q45.46 15.70 45.12 15.70L45.12 15.70Q44.50 15.70 44.50 15.02L44.50 15.02Q44.42 12.41 44.42 10.04Q44.42 7.68 44.57 6.14L44.57 6.14Q43.13 6.26 41.64 6.26L41.64 6.26Q40.90 6.26 40.90 5.64L40.90 5.64Q40.90 5.35 41.17 5.06Q41.45 4.78 41.78 4.75L41.78 4.75L49.27 4.51Q49.92 4.66 49.92 5.14L49.92 5.14Q49.92 6.12 47.66 6.12L47.66 6.12ZM58.70 0L58.70 0Q60.31 0 62.26 0.62L62.26 0.62Q62.69 0.96 62.69 1.36Q62.69 1.75 62.29 2.05Q61.90 2.35 61.39 2.35L61.39 2.35Q60.10 2.02 58.97 2.02L58.97 2.02Q56.38 2.02 55.03 3.55Q53.69 5.09 53.69 8.11Q53.69 11.14 55.27 12.84L55.27 12.84Q56.09 13.73 57.22 13.73Q58.34 13.73 60.82 12.53L60.82 12.53Q61.68 12.12 61.97 12.12L61.97 12.12Q62.59 12.12 62.59 12.77Q62.59 13.42 61.99 13.85L61.99 13.85Q59.93 14.93 58.78 15.30Q57.62 15.67 56.78 15.67L56.78 15.67Q55.06 15.67 53.83 14.40L53.83 14.40Q51.65 12.05 51.65 7.98Q51.65 3.91 53.72 1.96Q55.80 0 58.70 0ZM71.83 5.59L71.83 10.80L71.81 14.35Q71.81 15.70 70.94 15.70L70.94 15.70Q70.54 15.70 70.33 15.53Q70.13 15.36 70.15 15L70.15 15Q70.25 13.73 70.25 10.94L70.25 10.94Q69.84 10.99 68.99 10.99Q68.14 10.99 66.34 10.80L66.34 10.80L66.34 11.30Q66.34 11.81 66.53 14.95L66.53 14.95Q66.55 15.34 66.25 15.52Q65.95 15.70 65.64 15.70Q65.33 15.70 65.15 15.52Q64.97 15.34 64.94 15.10L64.94 15.10Q64.68 12.60 64.68 11.32Q64.68 10.03 64.70 9.58L64.70 9.58L64.80 5.57Q64.82 5.28 65.12 5.08Q65.42 4.87 65.76 4.87L65.76 4.87Q66.38 4.87 66.38 5.40L66.38 5.40L66.34 9.17Q67.54 9.36 68.42 9.36Q69.31 9.36 69.50 9.36L69.50 9.36L70.25 9.36Q70.18 8.04 70.18 5.38L70.18 5.38Q70.18 5.04 70.50 4.82Q70.82 4.61 71.20 4.61Q71.57 4.61 71.71 4.94Q71.86 5.28 71.83 5.59L71.83 5.59ZM75.55 15.05L75.55 15.05Q75.46 15.65 74.70 15.65Q73.94 15.65 73.94 15.02L73.94 15.02Q73.94 13.61 75.34 9.26L75.34 9.26Q75.96 7.27 76.73 5.95Q77.50 4.63 78.22 4.63L78.22 4.63Q78.60 4.63 78.89 5.09Q79.18 5.54 79.93 7.16Q80.69 8.78 81.19 10.60Q81.70 12.41 82.30 15.02L82.30 15.02Q82.30 15.34 82.08 15.52Q81.86 15.70 81.55 15.70L81.55 15.70Q80.78 15.70 80.59 15.02L80.59 15.02L79.75 11.74Q77.64 11.74 76.37 11.40L76.37 11.40Q75.65 14.04 75.55 15.05ZM78.14 6.84L78.14 6.84Q77.35 8.18 76.85 9.84L76.85 9.84Q77.90 10.13 79.34 10.13L79.34 10.13Q78.89 8.47 78.14 6.84ZM90.82 6.12L89.23 6.07L89.18 11.76Q89.18 13.54 89.23 14.88L89.23 14.88Q89.26 15.24 88.93 15.47Q88.61 15.70 88.27 15.70L88.27 15.70Q87.65 15.70 87.65 15.02L87.65 15.02Q87.58 12.41 87.58 10.04Q87.58 7.68 87.72 6.14L87.72 6.14Q86.28 6.26 84.79 6.26L84.79 6.26Q84.05 6.26 84.05 5.64L84.05 5.64Q84.05 5.35 84.32 5.06Q84.60 4.78 84.94 4.75L84.94 4.75L92.42 4.51Q93.07 4.66 93.07 5.14L93.07 5.14Q93.07 6.12 90.82 6.12L90.82 6.12Z" transform="translate(51, 4.562)"></path></svg>